<svg xmlns="http://www.w3.org/2000/svg" viewBox="0 0 660.86 649.6"><defs><style>.cls-1{opacity:0.2;}.cls-2{fill:#ccc;}.cls-3{opacity:0.3;}.cls-4{opacity:0.4;}.cls-5{fill:#ed5565;}.cls-6{fill:#da4453;}.cls-7{fill:#e6e9ed;}.cls-8{fill:#545c66;}.cls-9{fill:#656d78;}.cls-10{fill:#eac6bb;}.cls-11{fill:#965353;}.cls-12{fill:#d3b1a9;}</style></defs><title>Chef</title><g id="Layer_2" data-name="Layer 2"><g id="Layer_1-2" data-name="Layer 1"><g class="cls-1"><circle class="cls-2" cx="319.5" cy="319.5" r="319.5"/></g><g class="cls-3"><circle class="cls-2" cx="320.08" cy="320.08" r="261.41"/></g><g class="cls-4"><circle class="cls-2" cx="320.08" cy="320.08" r="203.32"/></g><path class="cls-5" d="M519.31,549.6l4.84,55.29-74,6.47-4.84-55.29-6.47-74A74.23,74.23,0,0,1,519.31,549.6Z"/><path class="cls-6" d="M519.29,549.42a74.25,74.25,0,0,0-80.44-67.5l-27.69,2.42A74.26,74.26,0,0,1,491.56,552l4.84,55.37,27.74-2.43Z"/><path class="cls-7" d="M643.42,370.86l8.09,92.46a18.62,18.62,0,0,1-16.87,20.11l-37,3.24-37,3.24A18.62,18.62,0,0,1,540.56,473l-8.09-92.46a18.62,18.62,0,0,1,16.87-20.11l74-6.47A18.62,18.62,0,0,1,643.42,370.86Z"/><path class="cls-5" d="M585.63,562.25l37-3.24,3.24,37-37,3.24Z"/><path class="cls-8" d="M401.87,485.16l37-3.24,6.47,74-37,3.24Z"/><path class="cls-8" d="M438.85,481.92l-27.76,2.43a74,74,0,0,1,28.23,3Z"/><path class="cls-5" d="M244.59,498.92c1.89,20.52,32.27,34.44,68,31.32s63.18-22.11,61.49-42.65l27.83-2.43,6.47,74L223.42,575.3l-6.47-74Z"/><path class="cls-9" d="M445.32,555.89l4.85,55.48L191.29,634l-4.85-55.48,37.08-3.24,184.92-16.18Z"/><path class="cls-5" d="M180,504.76l6.47,74L191.29,634l-74,6.47-4.84-55.29A74.23,74.23,0,0,1,180,504.76Z"/><path class="cls-8" d="M180,504.57l37-3.24,6.47,74-37,3.24Z"/><path class="cls-10" d="M374.13,487.59v.09c1.69,20.53-25.89,39.53-61.49,42.65s-66.07-10.8-68-31.32v-.09L240.06,446A139.47,139.47,0,0,0,369.5,434.69Z"/><path class="cls-11" d="M378.87,328.79a18.56,18.56,0,0,0,16.87-20.11l3.58,41a23.84,23.84,0,0,1-21.67,25.83l-60.93,5.33a12.16,12.16,0,0,1-9.44-3.27c-19-18.05-7.38-41.85,11.49-43.5Z"/><path class="cls-11" d="M194,345l-1.62-18.49a18.5,18.5,0,0,0,20.11,16.87L272,338.14c12-1.05,23.27,7,25.39,18.94a23.22,23.22,0,0,1-20.81,27.25l-32.36,2.83A46.36,46.36,0,0,1,194,345Z"/><path class="cls-10" d="M318.77,334a23.21,23.21,0,0,0-21.09,25.14,23.22,23.22,0,0,0-25.14-21.09l-60.1,5.26a18.5,18.5,0,0,1-20.11-16.87L194,345a46.36,46.36,0,0,0,50.27,42.19l32.36-2.83a23.22,23.22,0,0,0,21.09-25.14,23.21,23.21,0,0,0,25.14,21.09l32.36-2.83a46.41,46.41,0,0,0,42.19-50.27l-1.62-18.49a18.56,18.56,0,0,1-16.87,20.11ZM427.87,250l4.85,55.48a139.22,139.22,0,1,1-277.38,24.27l-4.85-55.48Z"/><path class="cls-12" d="M400.14,252.39,405,307.87A138.87,138.87,0,0,1,292.32,456.72c4.6.05,9.25-.05,13.94-.47A139.07,139.07,0,0,0,432.73,305.44L427.87,250Z"/><path class="cls-9" d="M145.49,216.07a65,65,0,0,1,7.4-128.38L207,83A92.74,92.74,0,0,1,339,71.4l54.08-4.73a65,65,0,0,1,29.67,125.14l5,58.16L150.5,274.23Z"/><path class="cls-8" d="M463.74,125.71a64.46,64.46,0,0,0-8.37-26.53,27.84,27.84,0,0,0-19.46,29A37.53,37.53,0,0,1,412.5,166,27.86,27.86,0,0,0,395,194.21l5,58.19L427.87,250l-5-58.17a65.26,65.26,0,0,0,40.86-66.09Z"/><path class="cls-8" d="M393.21,66.66l-27.76,2.43a65,65,0,0,1,70.38,59.06l27.76-2.43A65,65,0,0,0,393.21,66.66Z"/><path d="M113.28,594.3a9.27,9.27,0,0,1-10.05-8.44,83.64,83.64,0,0,1,76-90.51,9.28,9.28,0,0,1,1.62,18.49,65.06,65.06,0,0,0-59.08,70.4A9.27,9.27,0,0,1,113.28,594.3Z"/><path d="M520.1,558.7A9.27,9.27,0,0,1,510,550.26a65.05,65.05,0,0,0-70.38-59.06A9.28,9.28,0,1,1,438,472.71a83.62,83.62,0,0,1,90.49,75.93A9.27,9.27,0,0,1,520.1,558.7Z"/><path d="M245.48,508.16l-64.67,5.65a9.28,9.28,0,0,1-1.62-18.48l64.67-5.65a9.28,9.28,0,0,1,1.62,18.48Z"/><path d="M439.64,491.17,375,496.82a9.28,9.28,0,1,1-1.62-18.48L438,472.69a9.28,9.28,0,1,1,1.62,18.48Z"/><path d="M118.12,649.57a9.27,9.27,0,0,1-10.05-8.44l-4.84-55.27a9.28,9.28,0,1,1,18.49-1.62l4.84,55.27A9.27,9.27,0,0,1,118.12,649.57Z"/><path d="M524.94,614a9.27,9.27,0,0,1-10.05-8.44L510,550.26a9.28,9.28,0,1,1,18.49-1.62l4.84,55.28A9.27,9.27,0,0,1,524.94,614Z"/><path d="M245.5,508.19a9.27,9.27,0,0,1-10.05-8.44l-4.64-53a9.28,9.28,0,0,1,18.49-1.62l4.64,53A9.27,9.27,0,0,1,245.5,508.19Z"/><path d="M374.94,496.86a9.27,9.27,0,0,1-10.05-8.44l-4.64-53a9.28,9.28,0,0,1,18.49-1.62l4.64,53A9.27,9.27,0,0,1,374.94,496.86Z"/><path d="M307,465.54c-81.57,7.14-153.74-53.42-160.88-135a9.28,9.28,0,0,1,18.49-1.62,129.94,129.94,0,0,0,258.89-22.65A9.28,9.28,0,0,1,442,304.66C449.11,386.23,388.55,458.4,307,465.54Z"/><path d="M156.12,339.33a9.24,9.24,0,0,1-10-8.45l-9.79-113.65a9.25,9.25,0,0,1,8.36-10h0a9.24,9.24,0,0,1,10,8.45l9.79,113.65a9.25,9.25,0,0,1-8.36,10Z"/><path d="M433.5,315.14a9.24,9.24,0,0,1-10-8.45L413.72,193a9.25,9.25,0,0,1,8.36-10h0a9.24,9.24,0,0,1,10,8.45l9.8,113.72A9.25,9.25,0,0,1,433.5,315.14Z"/><path d="M356,386.63a9.28,9.28,0,0,1-1.62-18.49,37.16,37.16,0,0,0,33.75-40.22,9.28,9.28,0,0,1,18.49-1.62A55.74,55.74,0,0,1,356,386.63Z"/><path d="M379.67,338a9.28,9.28,0,0,1-1.62-18.49,9.26,9.26,0,0,0,8.42-10A9.28,9.28,0,0,1,405,307.83,27.86,27.86,0,0,1,379.67,338Z"/><path d="M379.68,338l-59.82,5.23a9.46,9.46,0,0,1-10.12-7.07A9.28,9.28,0,0,1,318,324.8l59.82-5.23a9.46,9.46,0,0,1,10.12,7.07A9.28,9.28,0,0,1,379.68,338Z"/><path d="M356,386.69l-32.08,2.81a9.46,9.46,0,0,1-10.12-7.07A9.28,9.28,0,0,1,322,371l32.08-2.81a9.46,9.46,0,0,1,10.12,7.07A9.28,9.28,0,0,1,356,386.69Z"/><path d="M323.62,389.46A32.48,32.48,0,0,1,318,324.74a9.28,9.28,0,0,1,1.62,18.49A13.92,13.92,0,0,0,322,371a9.28,9.28,0,1,1,1.62,18.49Z"/><path d="M398.16,336.36a9.27,9.27,0,0,1-10.05-8.44l-1.62-18.47A9.28,9.28,0,0,1,405,307.83l1.62,18.47A9.27,9.27,0,0,1,398.16,336.36Z"/><path d="M245,396.34a55.74,55.74,0,0,1-60.33-50.62,9.28,9.28,0,1,1,18.49-1.62,37.16,37.16,0,0,0,40.22,33.75A9.28,9.28,0,1,1,245,396.34Z"/><path d="M213.25,352.54a27.86,27.86,0,0,1-30.14-25.29,9.28,9.28,0,1,1,18.49-1.62,9.26,9.26,0,0,0,10,8.42,9.28,9.28,0,0,1,1.62,18.49Z"/><path d="M273.35,347.34l-59.82,5.23a9.46,9.46,0,0,1-10.12-7.07,9.28,9.28,0,0,1,8.22-11.4l59.82-5.23a9.46,9.46,0,0,1,10.12,7.07A9.28,9.28,0,0,1,273.35,347.34Z"/><path d="M277.39,393.56l-32.08,2.81a9.46,9.46,0,0,1-10.12-7.07,9.28,9.28,0,0,1,8.22-11.4l32.08-2.81a9.46,9.46,0,0,1,10.12,7.07A9.28,9.28,0,0,1,277.39,393.56Z"/><path d="M277.39,393.51A9.28,9.28,0,0,1,275.77,375a13.92,13.92,0,1,0-2.43-27.74,9.28,9.28,0,0,1-1.62-18.49,32.48,32.48,0,0,1,5.66,64.72Z"/><path d="M194.75,354.16a9.27,9.27,0,0,1-10.05-8.44l-1.62-18.47a9.28,9.28,0,0,1,18.49-1.62l1.62,18.47A9.27,9.27,0,0,1,194.75,354.16Z"/><path d="M451,620.61a9.27,9.27,0,0,1-10.05-8.44L429.61,482.77a9.28,9.28,0,1,1,18.49-1.62l11.32,129.41A9.27,9.27,0,0,1,451,620.61Z"/><path d="M182,634.54,170.75,505.7a9.46,9.46,0,0,1,7.07-10.12,9.28,9.28,0,0,1,11.4,8.22l11.32,129.41a9.28,9.28,0,0,1-9.8,10.08A9.46,9.46,0,0,1,182,634.54Z"/><path d="M428.68,259.21l-277.1,24.24a9.46,9.46,0,0,1-10.12-7.07,9.28,9.28,0,0,1,8.22-11.4l277.1-24.24a9.46,9.46,0,0,1,10.12,7.07A9.28,9.28,0,0,1,428.68,259.21Z"/><path d="M165.07,226.4A74.25,74.25,0,0,1,152.13,78.47,9.28,9.28,0,1,1,153.75,97a55.69,55.69,0,1,0,9.71,111,9.28,9.28,0,0,1,1.62,18.49Z"/><path d="M405.32,205.36a9.28,9.28,0,1,1-1.62-18.49,55.69,55.69,0,1,0-9.71-111,9.28,9.28,0,1,1-1.62-18.49,74.25,74.25,0,1,1,12.94,147.93Z"/><path d="M372.08,143A9.27,9.27,0,0,1,362,134.61,83.53,83.53,0,0,0,195.6,149.17a9.28,9.28,0,1,1-18.49,1.62A102.09,102.09,0,1,1,380.52,133,9.27,9.27,0,0,1,372.08,143Z"/><path d="M207.94,92.19,154,96.91a9.46,9.46,0,0,1-10.12-7.07,9.28,9.28,0,0,1,8.22-11.4L206,73.72a9.46,9.46,0,0,1,10.12,7.07A9.28,9.28,0,0,1,207.94,92.19Z"/><path d="M394,75.91l-53.73,4.7a9.46,9.46,0,0,1-10.12-7.07,9.28,9.28,0,0,1,8.22-11.4l53.73-4.7a9.46,9.46,0,0,1,10.12,7.07A9.28,9.28,0,0,1,394,75.91Z"/><path d="M214.15,575.88l-6.42-73.41a9.46,9.46,0,0,1,7.07-10.12,9.28,9.28,0,0,1,11.4,8.22l6.47,74a9.28,9.28,0,0,1-9.8,10.08A9.46,9.46,0,0,1,214.15,575.88Z"/><path d="M399.07,559.7l-6.42-73.41a9.46,9.46,0,0,1,7.07-10.12,9.28,9.28,0,0,1,11.4,8.22l6.47,74a9.28,9.28,0,0,1-9.8,10.08A9.46,9.46,0,0,1,399.07,559.7Z"/><path d="M446.13,565.14,187.26,587.78a9.28,9.28,0,0,1-1.62-18.49l258.87-22.65a9.28,9.28,0,0,1,1.62,18.49Z"/><path d="M313.46,539.53c-41.48,3.63-75.75-13.86-78-39.83a9.28,9.28,0,0,1,18.49-1.62c1.15,13.16,25.22,25.82,57.91,23s54.19-19.51,53-32.67a9.28,9.28,0,0,1,18.49-1.62C385.65,512.73,354.93,535.9,313.46,539.53Z"/><path d="M635.44,492.67l-74,6.47a27.84,27.84,0,0,1-30.16-25.31l-8.09-92.46a27.84,27.84,0,0,1,25.31-30.16l74-6.47A27.84,27.84,0,0,1,652.66,370l8.09,92.46A27.84,27.84,0,0,1,635.44,492.67ZM541.71,379.76l8.09,92.46a9.28,9.28,0,0,0,10.05,8.44l74-6.47a9.28,9.28,0,0,0,8.44-10.05l-8.09-92.46a9.28,9.28,0,0,0-10.05-8.44l-74,6.47A9.28,9.28,0,0,0,541.71,379.76Z"/><path d="M566.62,451.46l-4.8-54.91a9.46,9.46,0,0,1,7.07-10.12,9.28,9.28,0,0,1,11.4,8.22l4.85,55.48a9.28,9.28,0,0,1-9.8,10.08A9.46,9.46,0,0,1,566.62,451.46Z"/><path d="M603.6,448.22l-4.8-54.91a9.46,9.46,0,0,1,7.07-10.12,9.28,9.28,0,0,1,11.4,8.22l4.85,55.48a9.28,9.28,0,0,1-9.8,10.08A9.46,9.46,0,0,1,603.6,448.22Z"/><path d="M594.85,561.12l-6.42-73.41a9.46,9.46,0,0,1,7.07-10.12,9.28,9.28,0,0,1,11.4,8.22l6.47,74a9.28,9.28,0,0,1-9.8,10.08A9.46,9.46,0,0,1,594.85,561.12Z"/><path d="M623.55,568.25l-36.72,3.21a9.46,9.46,0,0,1-10.12-7.07,9.28,9.28,0,0,1,8.22-11.4l36.72-3.21a9.46,9.46,0,0,1,10.12,7.07A9.28,9.28,0,0,1,623.55,568.25Z"/><path d="M616.58,596.52l-3.19-36.43A9.46,9.46,0,0,1,620.46,550a9.28,9.28,0,0,1,11.4,8.22l3.24,37a9.28,9.28,0,0,1-9.8,10.08A9.46,9.46,0,0,1,616.58,596.52Z"/><path d="M579.58,599.59l-3.17-36.26a9.46,9.46,0,0,1,7.07-10.12,9.28,9.28,0,0,1,11.4,8.22l3.22,36.83a9.28,9.28,0,0,1-9.8,10.08A9.46,9.46,0,0,1,579.58,599.59Z"/></g></g></svg>