<svg xmlns="http://www.w3.org/2000/svg" viewBox="0 0 731.54 811.77"><defs><style>.cls-1{fill:#f2f2f2;}.cls-2,.cls-3,.cls-4{fill:none;stroke:#626d71;stroke-linejoin:round;}.cls-2{stroke-width:5px;}.cls-3,.cls-4{stroke-width:8px;}.cls-4{stroke-linecap:round;}.cls-5{font-size:30.85px;fill:#626d71;font-family:BookmanOldStyle-Bold, Bookman Old Style;font-weight:700;}</style></defs><title>create_recipe</title><g id="Layer_2" data-name="Layer 2"><g id="Layer_1-2" data-name="Layer 1"><path class="cls-1" d="M598.6,371.63c13.05,190.19,164.47,297,127,343-36.4,44.69-170.21-67.1-297-3-72.31,36.56-75.51,96.55-137,100-55.94,3.14-71.84-45.47-177-76-70.75-20.54-84.89-3.92-102-24-50.44-59.19,68.65-168.92,42-340-10.28-66-30.38-65-36-134-6-73.14,6.34-201.34,74-232,60.51-27.42,99.8,52.88,232,80,166.33,34.12,264.65-60.06,312-10C682.77,124.44,587.67,212.29,598.6,371.63Z"/><rect class="cls-2" x="208.96" y="160.58" width="263.05" height="490.09" rx="30" ry="30"/><circle class="cls-2" cx="432.24" cy="191.38" r="11.74"/><polyline class="cls-2" points="470.81 592.71 223.4 592.91 209.85 592.91"/><line class="cls-2" x1="292.36" y1="191.54" x2="391.07" y2="191.54"/><line class="cls-2" x1="210.81" y1="216.42" x2="470.43" y2="217.38"/><circle class="cls-3" cx="340.1" cy="473.13" r="64.5"/><line class="cls-4" x1="340.1" y1="436.8" x2="340.1" y2="508.82"/><line class="cls-4" x1="376.11" y1="473.13" x2="304.09" y2="473.13"/><text class="cls-5" transform="translate(273.95 301.49)">Vytvoriť <tspan x="15.42" y="37.02">recept</tspan></text></g></g></svg>