<svg xmlns="http://www.w3.org/2000/svg" viewBox="0 0 731.54 811.77"><defs><style>.cls-1{fill:#f2f2f2;}.cls-2,.cls-4{fill:none;stroke:#626d71;}.cls-2{stroke-linejoin:round;stroke-width:5px;}.cls-3{font-size:30.85px;fill:#626d71;font-family:BookmanOldStyle-Bold, Bookman Old Style;font-weight:700;}.cls-4{stroke-linecap:round;stroke-miterlimit:10;stroke-width:8px;}</style></defs><title>search_recipe</title><g id="Layer_2" data-name="Layer 2"><g id="Layer_1-2" data-name="Layer 1"><path class="cls-1" d="M598.6,371.63c13.05,190.19,164.47,297,127,343-36.4,44.69-170.21-67.1-297-3-72.31,36.56-75.51,96.55-137,100-55.94,3.14-71.84-45.47-177-76-70.75-20.54-84.89-3.92-102-24-50.44-59.19,68.65-168.92,42-340-10.28-66-30.38-65-36-134-6-73.14,6.34-201.34,74-232,60.51-27.42,99.8,52.88,232,80,166.33,34.12,264.65-60.06,312-10C682.77,124.44,587.67,212.29,598.6,371.63Z"/><rect class="cls-2" x="217.96" y="147.58" width="263.05" height="490.09" rx="30" ry="30"/><circle class="cls-2" cx="441.24" cy="178.38" r="11.74"/><polyline class="cls-2" points="479.81 579.71 232.4 579.91 218.85 579.91"/><line class="cls-2" x1="301.36" y1="178.54" x2="400.07" y2="178.54"/><line class="cls-2" x1="219.81" y1="203.42" x2="479.43" y2="204.38"/><text class="cls-3" transform="translate(275.91 266.49)">Vyhľadať <tspan x="22.47" y="37.02">recept</tspan></text><path class="cls-4" d="M388.1,420.13a55,55,0,1,1-55-55A54.84,54.84,0,0,1,388.1,420.13Z"/><line class="cls-4" x1="427.19" y1="538.22" x2="367.19" y2="468.88"/></g></g></svg>