<svg xmlns="http://www.w3.org/2000/svg" viewBox="0 0 83.26 92.5"><defs><style>.cls-1{fill:none;stroke:#626d71;stroke-miterlimit:10;stroke-width:3px;}</style></defs><title>Asset 14</title><g id="Layer_2" data-name="Layer 2"><g id="Layer_1-2" data-name="Layer 1"><circle class="cls-1" cx="41.52" cy="51" r="40"/><circle class="cls-1" cx="41.52" cy="51" r="32.5"/><circle class="cls-1" cx="42.02" cy="51.5" r="2.5"/><line class="cls-1" x1="41.52" y1="18.5" x2="41.52" y2="28.5"/><line class="cls-1" x1="9.02" y1="52" x2="19.02" y2="52"/><line class="cls-1" x1="65.02" y1="52" x2="75.02" y2="52"/><line class="cls-1" x1="41.52" y1="73.5" x2="41.52" y2="83.5"/><line class="cls-1" x1="42.52" y1="52" x2="55.02" y2="52"/><path class="cls-1" d="M41.52,34.23V49"/><polyline class="cls-1" points="39.52 11 39.52 6.25 29.52 6.25 29.52 1.5 49.52 1.5 54.52 1.5 54.52 6.25 44.52 6.25 44.52 11"/><polyline class="cls-1" points="68.06 21.6 75.13 14.53 68.06 7.46 82.2 21.6"/><polyline class="cls-1" points="15.2 21.6 8.13 14.53 1.06 21.6 15.2 7.46"/></g></g></svg>